#!OML:ASF F:\VICON\USERDATA\INSTALL\rory3\rory3.ASF
:FULLY-SPECIFIED
:DEGREES
36
root 0.6073913468199494 17.82960630422065 1.1530171948443417 -1.0822672365798334 0.9103604314909974 3.0257257089589964
lfemur 11.069550782675378 -2.937885285816725 -24.791744551077098
ltibia 21.682748816745125
lfoot -8.322017237084312 -5.5495542844781465
ltoes -11.819913894807936
rfemur -28.549502255735185 5.502033765710755 16.65032794183545
rtibia 24.242422192634876
rfoot -4.958143952556306 -7.993937355760954
rtoes 0.1575357255683998
lowerback 9.030791024014734 -1.118241236302429 -4.221034778334919
upperback 0.8032184886719653 -1.966034987589405 1.3277730194173651
thorax -4.432491772134659 -0.9069760049783497 4.277455496400162
lowerneck -16.746434389391776 -2.7328751323649914 -3.0955161124702286
upperneck 21.928020416619372 -3.3091986602451717 1.007182073731245
head 9.713397800523083 -1.6090244760858228 0.38208205768664727
lclavicle -1.953690386228295e-15 9.063540969998893e-16
lhumerus -20.12525442815403 -3.3344282909062635 82.87515358339525
lradius 30.803962207165796
lwrist 7.405141899422979
lhand -28.26037597823348 25.346841360225735
lfingers 7.12502
lthumb -1.8175929860607718 54.66684158756045
rclavicle -1.955759947638315e-15 9.059107884737912e-16
rhumerus -34.181641575130854 -26.828125637710542 -74.29900359672044
rradius 22.10264699914497
rwrist 9.171370350647978
rhand -17.449650610068126 21.60825375647984
rfingers 7.12502
rthumb 9.13130551440332 -8.15613213409522
37
root 0.5313981584305725 17.916175564871 2.0810864473713657 -1.1953446399475 0.24484814224387508 0.6699164329648197
lfemur 9.492977073556315 -3.2175431468606455 -22.189296386903003
ltibia 28.220714053135882
lfoot -1.8470658901670087 -9.033259769987474
ltoes -15.666749992653216
rfemur -26.978860680572545 5.575514634839038 19.702226866890133
rtibia 25.523854110288262
rfoot -2.5629387616265458 -4.306677959814651
rtoes 4.596735674068261
lowerback 9.139183160705 -1.1016174606620441 -1.7628976883061338
upperback 0.6272750142813285 -1.6224050753105894 2.1043462624822173
thorax -4.670731407353075 -0.8070318403744223 3.511653797987795
lowerneck -16.644848920790317 -2.669939716107232 -3.0680756668380083
upperneck 21.950477382353327 -3.201975033997292 0.8146963036043252
head 9.702522646749236 -1.574572915460406 0.34218620877406153
lclavicle -1.9531667456048042e-15 9.068360621454803e-16
lhumerus -21.669668050743766 -2.455717023516266 83.26812056605927
lradius 29.948639285917267
lwrist 7.089736391618722
lhand -28.760376757765485 24.29203930662922
lfingers 7.12502
lthumb -2.1804923554545743 53.84602519855935
rclavicle -1.9586969267725135e-15 9.031817917502848e-16
rhumerus -34.04556905308571 -27.10449795903329 -73.9703028490706
rradius 21.517843025143048
rwrist 10.124709070695873
rhand -17.46977687136842 22.188019830892546
rfingers 7.12502
rthumb 9.136755436078293 -7.56384810133305
38
root 0.4712064971018963 17.950657518690054 2.6131120965287415 -1.2108175446641216 -1.2653534790088599 -0.3451097725987444
lfemur 6.691502006821413 -1.7893775192545816 -20.543665814360978
ltibia 35.45451181830859
lfoot 5.275172813537236 -12.780355101591162
ltoes -16.567670488658198
rfemur -25.93214620216456 4.98695229161445 22.092154801057994
rtibia 27.82587536274921
rfoot -3.4434726731927396 -1.8981662733306166
rtoes 8.013210775306595
lowerback 8.988552191951605 -0.7257691948111354 -0.835145898996769
upperback 0.45766221665984064 -1.024194459652489 2.285020330465952
thorax -4.845075101233477 -0.568388035435911 3.025748118243919
lowerneck -16.505527553115513 -2.593783749932929 -2.9163311391570894
upperneck 21.760868531285915 -3.0742890721822027 0.6332822507079692
head 9.602551940933818 -1.5296432069587789 0.2869165930447273
lclavicle -1.9539343856046246e-15 9.061291491412097e-16
lhumerus -23.38329501712164 -1.618598893894766 83.50492939247302
lradius 29.415666113192888
lwrist 7.02670277657062
lhand -28.076407683791913 24.42787814842996
lfingers 7.12502
lthumb -1.563292065784708 53.889243894433385
rclavicle -1.959481764483255e-15 9.022053828362772e-16
rhumerus -33.70761958510832 -27.487957312794997 -73.76403991455824
rradius 21.285608649491227
rwrist 11.1605102551848
rhand -17.59558910955935 22.2354261826205
rfingers 7.12502
rthumb 8.976413052697357 -7.541807785342202
39
root 0.3863706811203475 18.023567536898724 2.89562423438663 -1.767232402481722 -1.6956248458962548 -1.5246690667162857
lfemur 2.9797325704913593 -0.8742645735952788 -18.52844699622974
ltibia 43.72937574397977
lfoot 13.233208044980909 -16.30074382274188
ltoes -6.6359499112906315
rfemur -23.742841117296628 5.52915108074218 24.2402195137375
rtibia 28.916781465555708
rfoot -4.264845724092075 -2.615378307468929
rtoes 10.376040868585056
lowerback 9.48748622889112 -0.5293922108881318 -0.04910478118707062
upperback 0.5438719483826999 -0.6562735713620271 2.483605315559296
thorax -4.978253710005697 -0.37893600579410014 2.661004419238693
lowerneck -16.54474485882976 -2.576489270032229 -2.7387659874118775
upperneck 21.52407549394021 -3.0634656502297313 0.5852382677406658
head 9.518515176662373 -1.5266041330159337 0.2547753582794643
lclavicle -1.9546679001763647e-15 9.054535533433033e-16
lhumerus -25.2338464700606 -1.679680183415864 83.83732091992728
lradius 29.27884932481105
lwrist 6.708798793317694
lhand -26.72838717898543 24.96509421759679
lfingers 7.12502
lthumb -0.21937302515801088 54.584504443646225
rclavicle -1.9589668916921703e-15 9.027236481150604e-16
rhumerus -32.89754690074701 -25.838791570807743 -75.08289161527566
rradius 21.97476480745923
rwrist 9.31544029818377
rhand -17.454122394136252 21.85819344880725
rfingers 7.12502
rthumb 8.99866231462156 -8.328779845140954
40
root 0.30281770288954346 18.139698191326374 3.383066743649466 -1.9188319408279242 -2.1947368018353557 -3.445938561543892
lfemur -2.245066746967299 -0.2085452446724756 -15.704139564064803
ltibia 51.84847263883785
lfoot 20.98541953978137 -15.974279193208634
ltoes 1.7706694179560265
rfemur -20.366603210246883 6.5310719066332155 26.882824605597637
rtibia 28.31402788333547
rfoot -4.926503408071039 -4.131883293246528
rtoes 9.766614849094784
lowerback 9.891498184167153 -0.32292185483539704 1.6890946635639823
upperback 0.4674998378271771 -0.14349561218958629 2.885657690116532
thorax -5.21101254127385 -0.14847910697532318 1.8644183770096956
lowerneck -16.33196627866503 -2.6190231638040538 -2.7670218640562587
upperneck 21.428763183613263 -3.143790252694065 0.7071414890577563
head 9.480599601631784 -1.5522712443805777 0.27674081131874695
lclavicle -1.952952288747301e-15 9.070340470629187e-16
lhumerus -26.686325810350294 -1.972488347446182 84.17324556261408
lradius 28.77970654589062
lwrist 5.943027662956783
lhand -26.342111481514372 24.688227591678782
lfingers 7.12502
lthumb -0.003810553206417211 54.30595675377064
rclavicle -1.9591966404835968e-15 9.027129256067499e-16
rhumerus -31.604789148167725 -23.694130582322224 -76.58052932666921
rradius 22.267133954385084
rwrist 8.031987699953095
rhand -17.28969628971824 22.32171396813335
rfingers 7.12502
rthumb 9.125393762602851 -7.995741961229364
41
root 0.23153278619968332 18.18379121594404 3.8546113108688793 -2.408429990551337 -2.4041054083137285 -4.025132715879148
lfemur -7.063675150731158 0.6896487813134389 -14.509790850553513
ltibia 57.96313793101244
lfoot 15.711484578726271 -15.46766441297027
ltoes -1.6636280974047388
rfemur -17.69316320209637 6.9966115479238065 28.23032685534218
rtibia 28.841018074706334
rfoot -6.28973778881344 -5.145133911924505
rtoes 9.43901829595389
lowerback 10.391774270937212 -0.10249867898958842 2.174385585979473
upperback 0.6357801671536636 0.28666768522308894 2.888626359713961
thorax -5.233832435667093 0.08081673883066798 1.4450563279764816
lowerneck -16.210133184214175 -2.672434410887453 -2.6598652494325306
upperneck 21.430951623687513 -3.247672233631197 0.7255119578104976
head 9.479799375979951 -1.586552177103782 0.259282911642715
lclavicle -1.953057108320132e-15 9.06936882229193e-16
lhumerus -27.954574598979036 -1.7727396829248219 84.3693497066684
lradius 28.323489825720113
lwrist 4.367704179048435
lhand -25.99816306575234 25.361073438822856
lfingers 7.12502
lthumb 0.5604388164673826 55.40471618213376
rclavicle -1.95926528375083e-15 9.024198008357372e-16
rhumerus -30.10346133961987 -21.624172847575075 -78.03599749791695
rradius 22.61575363467869
rwrist 7.865057466360794
rhand -17.004532355638755 22.61305411958574
rfingers 7.12502
rthumb 9.268885173522271 -7.608989089068471
